 <svg width="578" height="578" viewBox="0 0 578 578" fill="none" xmlns="http://www.w3.org/2000/svg">
    <rect width="578" height="578" fill="#F5F5F5"/>
    <g clip-path="url(#clip0_0_1)">
        <path d="M578 289C578.101 357.219 553.97 423.257 509.91 475.34C508.31 477.24 506.68 479.11 505.02 480.97C485.485 502.94 462.729 521.818 437.53 536.96C431.75 540.43 425.843 543.7 419.81 546.77C419.2 547.08 418.58 547.39 417.97 547.69C417.24 548.06 416.5 548.42 415.76 548.78C400.493 556.253 384.59 562.35 368.24 567C366.54 567.48 364.837 567.947 363.13 568.4C341.623 574.091 319.529 577.275 297.29 577.89C296.13 577.92 294.99 577.94 293.89 577.96C293.5 577.97 293.12 577.98 292.74 577.98C291.49 577.99 290.25 578 289 578C265.564 578.017 242.213 575.187 219.46 569.57C217.18 569.01 214.91 568.42 212.65 567.8C200.746 564.55 189.064 560.532 177.68 555.77C171.68 553.27 165.787 550.573 160 547.68C158.69 547.02 157.38 546.36 156.09 545.68C155.54 545.41 155 545.12 154.46 544.84C123.618 528.562 95.9603 506.862 72.8101 480.78C71.2101 478.99 69.64 477.17 68.09 475.34C42.5827 445.097 23.556 409.94 12.1881 372.045C0.820288 334.15 -2.64656 294.325 2.00231 255.036C6.65118 215.747 19.3168 177.831 39.2147 143.636C59.1126 109.441 85.819 79.6945 117.68 56.24C119.32 55.03 120.97 53.83 122.64 52.66C122.97 52.43 123.3 52.2 123.63 51.97C152.973 31.416 185.908 16.5426 220.73 8.11998C222.71 7.62998 224.69 7.16999 226.69 6.73999C264.407 -1.51031 303.387 -2.19352 341.37 4.72998C343.36 5.09998 345.35 5.47999 347.33 5.88999C381.841 12.9685 414.755 26.3342 444.43 45.32C445.09 45.74 445.75 46.16 446.41 46.6C447.74 47.46 449.07 48.34 450.38 49.23C489.691 75.6583 521.894 111.354 544.151 153.168C566.407 194.983 578.032 241.631 578 289V289Z" fill="#F2F2F2"/>
        <path d="M216 438.51L123.63 446.71L122.64 446.8V52.66C122.97 52.43 123.3 52.2 123.63 51.97C142.881 38.5047 163.705 27.4427 185.64 19.03L190.36 84.13L190.79 90.09L195.46 154.65L196.9 174.51L215.83 436.21L216 438.51Z" fill="#CCCCCC"/>
        <path d="M444.43 45.32C445.09 45.74 445.75 46.16 446.41 46.6V446.8L444.43 446.62L353.06 438.51L353.23 436.21L372.16 174.51L373.6 154.65L378.27 90.09L378.7 84.13L383.65 15.86C404.997 23.2593 425.397 33.1475 444.43 45.32V45.32Z" fill="#CCCCCC"/>
        <path d="M444.43 45.32V452.26C444.43 460.07 439.05 466.42 432.43 466.42H135.63C130.15 466.42 125.5 462.06 124.09 456.11C123.782 454.85 123.628 453.557 123.63 452.26V51.97C123.3 52.2 122.97 52.43 122.64 52.66C120.97 53.83 119.32 55.03 117.68 56.24V452.26C117.591 458.192 119.807 463.928 123.86 468.26C125.985 470.487 128.674 472.097 131.64 472.92C132.941 473.274 134.282 473.452 135.63 473.45H432.43C433.781 473.451 435.126 473.273 436.43 472.92C444.41 470.77 450.38 462.33 450.38 452.26V49.23C449.07 48.34 447.74 47.46 446.41 46.6C445.75 46.16 445.09 45.74 444.43 45.32Z" fill="#CCCCCC"/>
        <path d="M447.408 84.134H120.655V90.093H447.408V84.134Z" fill="#CCCCCC"/>
        <path d="M220.73 8.11998C222.71 7.62998 224.69 7.16999 226.69 6.73999V168.55H220.73V8.11998Z" fill="#CCCCCC"/>
        <path d="M341.37 4.72998C343.36 5.09998 345.35 5.47998 347.33 5.88998V168.55H341.37V4.72998Z" fill="#CCCCCC"/>
        <path d="M447.408 154.649H122.642V174.512H447.408V154.649Z" fill="#CCCCCC"/>
        <path d="M282.045 148.69H288.004C289.439 148.69 290.859 148.972 292.185 149.521C293.51 150.071 294.715 150.875 295.729 151.89C296.743 152.904 297.548 154.109 298.097 155.434C298.646 156.759 298.929 158.18 298.929 159.615V159.615H271.12C271.12 156.717 272.271 153.938 274.32 151.89C276.369 149.841 279.148 148.69 282.045 148.69H282.045Z" fill="#CCCCCC"/>
        <path d="M452.13 412.13H60.82C53.7069 412.13 46.8851 414.956 41.8554 419.985C36.8257 425.015 34 431.837 34 438.95C34 446.063 36.8257 452.885 41.8554 457.915C46.8851 462.944 53.7069 465.77 60.82 465.77H452.13C455.939 465.771 459.704 464.959 463.174 463.388C466.643 461.816 469.738 459.523 472.25 456.66C473.387 455.366 474.399 453.966 475.27 452.48C475.945 451.34 476.53 450.15 477.02 448.92C478.654 444.851 479.264 440.444 478.798 436.084C478.332 431.724 476.804 427.546 474.347 423.914C471.89 420.283 468.58 417.309 464.706 415.255C460.833 413.2 456.515 412.127 452.13 412.13V412.13Z" fill="#CCCCCC"/>
        <path d="M477.39 451.26C468.703 461.554 459.306 471.227 449.27 480.21H63.69C53.6535 471.227 44.2573 461.554 35.57 451.26H477.39Z" fill="#3F3D56"/>
        <path d="M288.76 350.99H223.84C223.49 350.986 223.142 351.04 222.81 351.15C222.105 351.368 221.489 351.806 221.052 352.4C220.614 352.994 220.379 353.712 220.38 354.45V457.01H292.23V354.45C292.23 353.995 292.139 353.544 291.965 353.124C291.79 352.704 291.534 352.322 291.212 352.001C290.89 351.679 290.507 351.425 290.087 351.251C289.666 351.078 289.215 350.989 288.76 350.99ZM264.19 401.59C264.192 403.254 263.644 404.871 262.63 406.19C261.663 407.47 260.318 408.414 258.785 408.889C257.253 409.365 255.61 409.347 254.088 408.839C252.566 408.331 251.242 407.358 250.302 406.058C249.362 404.757 248.855 403.194 248.85 401.59V389.69C248.869 387.668 249.685 385.735 251.121 384.312C252.558 382.889 254.498 382.091 256.52 382.091C258.542 382.091 260.482 382.889 261.919 384.312C263.355 385.735 264.171 387.668 264.19 389.69V401.59Z" fill="#2F2E41"/>
        <path d="M220.16 453.73V463.62C220.16 464.133 220.363 464.625 220.725 464.988C221.086 465.352 221.577 465.557 222.09 465.56H290.52C291.032 465.556 291.522 465.35 291.884 464.986C292.245 464.623 292.448 464.132 292.45 463.62V453.73H220.16Z" fill="#3F3D56"/>
        <path d="M343.72 465.4L341.2 453.43C341.096 452.942 340.871 452.488 340.546 452.109C340.221 451.73 339.806 451.438 339.34 451.26C339.002 451.128 338.643 451.06 338.28 451.06H180.97C180.607 451.06 180.248 451.128 179.91 451.26C179.444 451.438 179.029 451.73 178.704 452.109C178.379 452.488 178.154 452.942 178.05 453.43L175.53 465.4C175.439 465.834 175.446 466.284 175.55 466.715C175.655 467.147 175.854 467.55 176.134 467.895C176.413 468.239 176.766 468.517 177.167 468.709C177.568 468.9 178.006 468.999 178.45 469H340.79C341.235 469.002 341.676 468.904 342.077 468.711C342.479 468.519 342.832 468.238 343.11 467.89C343.39 467.546 343.59 467.145 343.696 466.714C343.801 466.283 343.81 465.834 343.72 465.4V465.4Z" fill="#2F2E41"/>
        <path d="M186.635 453.216H182.611C182.342 453.216 182.123 453.434 182.123 453.704V455.728C182.123 455.997 182.342 456.216 182.611 456.216H186.635C186.904 456.216 187.123 455.997 187.123 455.728V453.704C187.123 453.434 186.904 453.216 186.635 453.216Z" fill="#3F3D56"/>
        <path d="M196.635 453.216H192.611C192.342 453.216 192.123 453.434 192.123 453.704V455.728C192.123 455.997 192.342 456.216 192.611 456.216H196.635C196.904 456.216 197.123 455.997 197.123 455.728V453.704C197.123 453.434 196.904 453.216 196.635 453.216Z" fill="#3F3D56"/>
        <path d="M206.635 453.216H202.611C202.342 453.216 202.123 453.434 202.123 453.704V455.728C202.123 455.997 202.342 456.216 202.611 456.216H206.635C206.904 456.216 207.123 455.997 207.123 455.728V453.704C207.123 453.434 206.904 453.216 206.635 453.216Z" fill="#3F3D56"/>
        <path d="M216.635 453.216H212.611C212.342 453.216 212.123 453.434 212.123 453.704V455.728C212.123 455.997 212.342 456.216 212.611 456.216H216.635C216.904 456.216 217.123 455.997 217.123 455.728V453.704C217.123 453.434 216.904 453.216 216.635 453.216Z" fill="#3F3D56"/>
        <path d="M226.635 453.216H222.611C222.342 453.216 222.123 453.434 222.123 453.704V455.728C222.123 455.997 222.342 456.216 222.611 456.216H226.635C226.904 456.216 227.123 455.997 227.123 455.728V453.704C227.123 453.434 226.904 453.216 226.635 453.216Z" fill="#3F3D56"/>
        <path d="M236.635 453.216H232.611C232.342 453.216 232.123 453.434 232.123 453.704V455.728C232.123 455.997 232.342 456.216 232.611 456.216H236.635C236.904 456.216 237.123 455.997 237.123 455.728V453.704C237.123 453.434 236.904 453.216 236.635 453.216Z" fill="#3F3D56"/>
        <path d="M246.635 453.216H242.611C242.342 453.216 242.123 453.434 242.123 453.704V455.728C242.123 455.997 242.342 456.216 242.611 456.216H246.635C246.904 456.216 247.123 455.997 247.123 455.728V453.704C247.123 453.434 246.904 453.216 246.635 453.216Z" fill="#3F3D56"/>
        <path d="M256.635 453.216H252.611C252.342 453.216 252.123 453.434 252.123 453.704V455.728C252.123 455.997 252.342 456.216 252.611 456.216H256.635C256.904 456.216 257.123 455.997 257.123 455.728V453.704C257.123 453.434 256.904 453.216 256.635 453.216Z" fill="#3F3D56"/>
        <path d="M266.635 453.216H262.611C262.342 453.216 262.123 453.434 262.123 453.704V455.728C262.123 455.997 262.342 456.216 262.611 456.216H266.635C266.904 456.216 267.123 455.997 267.123 455.728V453.704C267.123 453.434 266.904 453.216 266.635 453.216Z" fill="#3F3D56"/>
        <path d="M276.635 453.216H272.611C272.342 453.216 272.123 453.434 272.123 453.704V455.728C272.123 455.997 272.342 456.216 272.611 456.216H276.635C276.904 456.216 277.123 455.997 277.123 455.728V453.704C277.123 453.434 276.904 453.216 276.635 453.216Z" fill="#3F3D56"/>
        <path d="M286.635 453.216H282.611C282.342 453.216 282.123 453.434 282.123 453.704V455.728C282.123 455.997 282.342 456.216 282.611 456.216H286.635C286.904 456.216 287.123 455.997 287.123 455.728V453.704C287.123 453.434 286.904 453.216 286.635 453.216Z" fill="#3F3D56"/>
        <path d="M296.635 453.216H292.611C292.342 453.216 292.123 453.434 292.123 453.704V455.728C292.123 455.997 292.342 456.216 292.611 456.216H296.635C296.904 456.216 297.123 455.997 297.123 455.728V453.704C297.123 453.434 296.904 453.216 296.635 453.216Z" fill="#3F3D56"/>
        <path d="M306.635 453.216H302.611C302.342 453.216 302.123 453.434 302.123 453.704V455.728C302.123 455.997 302.342 456.216 302.611 456.216H306.635C306.904 456.216 307.123 455.997 307.123 455.728V453.704C307.123 453.434 306.904 453.216 306.635 453.216Z" fill="#3F3D56"/>
        <path d="M316.635 453.216H312.611C312.342 453.216 312.123 453.434 312.123 453.704V455.728C312.123 455.997 312.342 456.216 312.611 456.216H316.635C316.904 456.216 317.123 455.997 317.123 455.728V453.704C317.123 453.434 316.904 453.216 316.635 453.216Z" fill="#3F3D56"/>
        <path d="M326.635 453.216H322.611C322.342 453.216 322.123 453.434 322.123 453.704V455.728C322.123 455.997 322.342 456.216 322.611 456.216H326.635C326.904 456.216 327.123 455.997 327.123 455.728V453.704C327.123 453.434 326.904 453.216 326.635 453.216Z" fill="#3F3D56"/>
        <path d="M336.635 453.216H332.611C332.342 453.216 332.123 453.434 332.123 453.704V455.728C332.123 455.997 332.342 456.216 332.611 456.216H336.635C336.904 456.216 337.123 455.997 337.123 455.728V453.704C337.123 453.434 336.904 453.216 336.635 453.216Z" fill="#3F3D56"/>
        <path d="M186.517 458.216H182.493C182.223 458.216 182.005 458.434 182.005 458.704V460.728C182.005 460.997 182.223 461.216 182.493 461.216H186.517C186.786 461.216 187.005 460.997 187.005 460.728V458.704C187.005 458.434 186.786 458.216 186.517 458.216Z" fill="#3F3D56"/>
        <path d="M196.517 458.216H192.493C192.223 458.216 192.005 458.434 192.005 458.704V460.728C192.005 460.997 192.223 461.216 192.493 461.216H196.517C196.786 461.216 197.005 460.997 197.005 460.728V458.704C197.005 458.434 196.786 458.216 196.517 458.216Z" fill="#3F3D56"/>
        <path d="M206.517 458.216H202.493C202.223 458.216 202.005 458.434 202.005 458.704V460.728C202.005 460.997 202.223 461.216 202.493 461.216H206.517C206.786 461.216 207.005 460.997 207.005 460.728V458.704C207.005 458.434 206.786 458.216 206.517 458.216Z" fill="#3F3D56"/>
        <path d="M216.517 458.216H212.493C212.223 458.216 212.005 458.434 212.005 458.704V460.728C212.005 460.997 212.223 461.216 212.493 461.216H216.517C216.786 461.216 217.005 460.997 217.005 460.728V458.704C217.005 458.434 216.786 458.216 216.517 458.216Z" fill="#3F3D56"/>
        <path d="M226.517 458.216H222.493C222.223 458.216 222.005 458.434 222.005 458.704V460.728C222.005 460.997 222.223 461.216 222.493 461.216H226.517C226.786 461.216 227.005 460.997 227.005 460.728V458.704C227.005 458.434 226.786 458.216 226.517 458.216Z" fill="#3F3D56"/>
        <path d="M236.517 458.216H232.493C232.223 458.216 232.005 458.434 232.005 458.704V460.728C232.005 460.997 232.223 461.216 232.493 461.216H236.517C236.786 461.216 237.005 460.997 237.005 460.728V458.704C237.005 458.434 236.786 458.216 236.517 458.216Z" fill="#3F3D56"/>
        <path d="M246.517 458.216H242.493C242.223 458.216 242.005 458.434 242.005 458.704V460.728C242.005 460.997 242.223 461.216 242.493 461.216H246.517C246.786 461.216 247.005 460.997 247.005 460.728V458.704C247.005 458.434 246.786 458.216 246.517 458.216Z" fill="#3F3D56"/>
        <path d="M256.517 458.216H252.493C252.223 458.216 252.005 458.434 252.005 458.704V460.728C252.005 460.997 252.223 461.216 252.493 461.216H256.517C256.786 461.216 257.005 460.997 257.005 460.728V458.704C257.005 458.434 256.786 458.216 256.517 458.216Z" fill="#3F3D56"/>
        <path d="M266.517 458.216H262.493C262.223 458.216 262.005 458.434 262.005 458.704V460.728C262.005 460.997 262.223 461.216 262.493 461.216H266.517C266.786 461.216 267.005 460.997 267.005 460.728V458.704C267.005 458.434 266.786 458.216 266.517 458.216Z" fill="#3F3D56"/>
        <path d="M276.517 458.216H272.493C272.223 458.216 272.005 458.434 272.005 458.704V460.728C272.005 460.997 272.223 461.216 272.493 461.216H276.517C276.786 461.216 277.005 460.997 277.005 460.728V458.704C277.005 458.434 276.786 458.216 276.517 458.216Z" fill="#3F3D56"/>
        <path d="M286.517 458.216H282.493C282.223 458.216 282.005 458.434 282.005 458.704V460.728C282.005 460.997 282.223 461.216 282.493 461.216H286.517C286.786 461.216 287.005 460.997 287.005 460.728V458.704C287.005 458.434 286.786 458.216 286.517 458.216Z" fill="#3F3D56"/>
        <path d="M296.517 458.216H292.493C292.223 458.216 292.005 458.434 292.005 458.704V460.728C292.005 460.997 292.223 461.216 292.493 461.216H296.517C296.786 461.216 297.005 460.997 297.005 460.728V458.704C297.005 458.434 296.786 458.216 296.517 458.216Z" fill="#3F3D56"/>
        <path d="M306.517 458.216H302.493C302.223 458.216 302.005 458.434 302.005 458.704V460.728C302.005 460.997 302.223 461.216 302.493 461.216H306.517C306.786 461.216 307.005 460.997 307.005 460.728V458.704C307.005 458.434 306.786 458.216 306.517 458.216Z" fill="#3F3D56"/>
        <path d="M316.517 458.216H312.493C312.223 458.216 312.005 458.434 312.005 458.704V460.728C312.005 460.997 312.223 461.216 312.493 461.216H316.517C316.786 461.216 317.005 460.997 317.005 460.728V458.704C317.005 458.434 316.786 458.216 316.517 458.216Z" fill="#3F3D56"/>
        <path d="M326.517 458.216H322.493C322.223 458.216 322.005 458.434 322.005 458.704V460.728C322.005 460.997 322.223 461.216 322.493 461.216H326.517C326.786 461.216 327.005 460.997 327.005 460.728V458.704C327.005 458.434 326.786 458.216 326.517 458.216Z" fill="#3F3D56"/>
        <path d="M336.517 458.216H332.493C332.223 458.216 332.005 458.434 332.005 458.704V460.728C332.005 460.997 332.223 461.216 332.493 461.216H336.517C336.786 461.216 337.005 460.997 337.005 460.728V458.704C337.005 458.434 336.786 458.216 336.517 458.216Z" fill="#3F3D56"/>
        <path d="M269.517 464.216H230.493C230.223 464.216 230.005 464.434 230.005 464.704V466.728C230.005 466.997 230.223 467.216 230.493 467.216H269.517C269.786 467.216 270.005 466.997 270.005 466.728V464.704C270.005 464.434 269.786 464.216 269.517 464.216Z" fill="#3F3D56"/>
        <path d="M554.818 514.049C554.225 514.39 553.622 514.731 553.028 515.062C537.652 523.759 525.258 528.889 508.242 534.685C505.951 518.481 503.079 489.941 500.804 472.274C500.209 467.688 499.651 463.842 499.162 461.133C499 459.688 498.631 458.274 498.066 456.934L498.343 461.175L499.066 472.363L503.21 536.345C482.021 543.127 460.119 547.436 437.941 549.186C436.784 549.275 435.646 549.353 434.549 549.429C434.16 549.459 433.781 549.489 433.401 549.508C432.153 549.582 430.915 549.655 429.667 549.719C406.263 550.934 382.797 549.3 359.787 544.853C359.453 528.719 358.495 500.401 357.9 479.584C357.792 475.514 357.689 471.724 357.617 468.374C357.441 461.213 357.378 456.05 357.479 454.312C357.326 454.627 357.212 454.959 357.139 455.301C356.434 459.655 356.027 464.051 355.92 468.461C355.741 471.824 355.585 475.627 355.444 479.71C354.691 501.406 354.256 530.877 352.896 543.433C340.841 540.795 328.97 537.379 317.357 533.205C311.237 531.015 305.214 528.623 299.287 526.029C300.017 518.782 300.754 510.664 301.504 502.244C302.092 495.716 302.7 489.006 303.332 482.375C304.31 472.132 305.338 462.086 306.447 453.228C308.068 440.288 309.878 429.862 311.952 425.01C313.92 420.403 315.89 415.857 317.8 411.504C318.463 409.978 319.127 408.472 319.773 407.007C319.925 406.659 320.078 406.32 320.231 405.982C321.605 402.898 322.936 399.946 324.207 397.178C325.297 394.809 326.334 392.573 327.32 390.51C329.707 385.501 331.746 381.502 333.278 378.96C339.671 368.092 349.589 359.738 361.385 355.284L361.68 355.188L361.895 355.268L381.997 347.951L384.936 346.879L386.912 346.158L393.707 340.413L397.403 337.29L400.868 334.359L407.644 328.636L451.434 329.089L460.98 349.118L480.371 355.105L480.693 354.938L480.977 354.803L481.28 354.868C493.468 358.099 504.185 365.397 511.657 375.553C512.667 376.913 513.901 378.713 515.304 380.894C516.5 382.745 517.81 384.861 519.232 387.201C521.254 390.532 523.47 394.294 525.821 398.369C526.337 399.264 526.865 400.178 527.392 401.103C528.371 402.815 529.365 404.563 530.374 406.347C532.719 410.483 535.143 414.805 537.57 419.196C539.677 423.004 542.016 430.935 544.436 441.054C546.438 449.463 548.508 459.39 550.549 469.729C553.217 483.13 551.936 499.407 554.36 511.739C554.51 512.523 554.669 513.286 554.818 514.049Z" fill="#3F3D56"/>
        <path d="M561.82 442.466C558.78 484.346 561.93 502.786 545.15 537.316C529.883 544.788 513.98 550.886 497.63 555.536C495.93 556.016 494.227 556.482 492.52 556.936C471.013 562.626 448.919 565.811 426.68 566.426C425.52 566.456 424.38 566.476 423.28 566.496C422.89 566.506 422.51 566.516 422.13 566.516C420.88 566.526 419.64 566.536 418.39 566.536C394.954 566.553 371.603 563.722 348.85 558.106C346.57 557.546 344.3 556.956 342.04 556.336C330.136 553.086 318.454 549.067 307.07 544.306C301.07 541.806 295.177 539.109 289.39 536.216C288.08 535.556 286.77 534.896 285.48 534.216C278.85 522.556 275.08 508.376 275 491.336C279.59 461.976 551.68 417.146 561.82 442.466Z" fill="#2F2E41"/>
        <path opacity="0.2" d="M563.289 450.525C563.444 447.933 563.618 445.255 563.82 442.466C553.68 417.146 281.59 461.976 277 491.336C277.013 494.027 277.128 496.64 277.321 499.19C288.437 470.212 546.926 427.604 563.289 450.525Z" fill="black"/>
        <path d="M398.5 146H121C118.616 146.003 116.33 146.951 114.643 148.636C112.956 150.321 112.006 152.606 112 154.99V342.25C112.002 344.636 112.951 346.924 114.638 348.612C116.326 350.299 118.614 351.248 121 351.25H398.5C400.886 351.248 403.174 350.299 404.862 348.612C406.549 346.924 407.498 344.636 407.5 342.25V154.99C407.494 152.606 406.544 150.321 404.857 148.636C403.17 146.951 400.884 146.003 398.5 146V146Z" fill="#3F3D56"/>
        <path d="M396.18 152.5H123.31C122.033 152.503 120.81 153.012 119.908 153.915C119.007 154.819 118.5 156.043 118.5 157.32V339.94C118.502 341.215 119.01 342.437 119.911 343.339C120.813 344.24 122.035 344.748 123.31 344.75H396.18C397.455 344.748 398.677 344.24 399.579 343.339C400.48 342.437 400.988 341.215 400.99 339.94V157.32C400.99 156.043 400.483 154.819 399.582 153.915C398.68 153.012 397.457 152.503 396.18 152.5V152.5Z" fill="#6C63FF"/>
        <path d="M382.468 177.657H127.145C126.879 177.651 126.627 177.541 126.441 177.352C126.255 177.162 126.151 176.907 126.151 176.641C126.151 176.376 126.255 176.121 126.441 175.931C126.627 175.741 126.879 175.632 127.145 175.626H382.468C382.734 175.632 382.986 175.741 383.172 175.931C383.357 176.121 383.461 176.376 383.461 176.641C383.461 176.907 383.357 177.162 383.172 177.352C382.986 177.541 382.734 177.651 382.468 177.657V177.657Z" fill="#3F3D56"/>
        <path d="M144.525 170.442C147.811 170.442 150.475 167.718 150.475 164.359C150.475 160.999 147.811 158.276 144.525 158.276C141.239 158.276 138.575 160.999 138.575 164.359C138.575 167.718 141.239 170.442 144.525 170.442Z" fill="#F50057"/>
        <path d="M165.081 170.442C168.367 170.442 171.031 167.718 171.031 164.359C171.031 160.999 168.367 158.276 165.081 158.276C161.795 158.276 159.131 160.999 159.131 164.359C159.131 167.718 161.795 170.442 165.081 170.442Z" fill="#F9A826"/>
        <path d="M185.637 170.442C188.923 170.442 191.587 167.718 191.587 164.359C191.587 160.999 188.923 158.276 185.637 158.276C182.351 158.276 179.687 160.999 179.687 164.359C179.687 167.718 182.351 170.442 185.637 170.442Z" fill="#00BFA6"/>
        <path d="M370.09 159.78H355.49C355.201 159.787 354.927 159.906 354.725 160.113C354.523 160.319 354.41 160.596 354.41 160.885C354.41 161.174 354.523 161.451 354.725 161.657C354.927 161.864 355.201 161.983 355.49 161.99H370.09C370.38 161.986 370.657 161.868 370.861 161.661C371.065 161.454 371.18 161.175 371.18 160.885C371.18 160.595 371.065 160.316 370.861 160.109C370.657 159.902 370.38 159.784 370.09 159.78Z" fill="#E6E6E6"/>
        <path d="M370.09 163.93H355.49C355.201 163.936 354.926 164.056 354.724 164.262C354.522 164.469 354.409 164.746 354.409 165.035C354.409 165.324 354.522 165.601 354.724 165.808C354.926 166.014 355.201 166.134 355.49 166.14H370.09C370.381 166.137 370.658 166.019 370.863 165.812C371.067 165.605 371.182 165.326 371.182 165.035C371.182 164.744 371.067 164.465 370.863 164.258C370.658 164.051 370.381 163.934 370.09 163.93V163.93Z" fill="#E6E6E6"/>
        <path d="M370.09 168.08H355.49C355.201 168.087 354.927 168.206 354.725 168.413C354.523 168.619 354.41 168.896 354.41 169.185C354.41 169.474 354.523 169.751 354.725 169.957C354.927 170.164 355.201 170.283 355.49 170.29H370.09C370.38 170.286 370.657 170.168 370.861 169.961C371.065 169.754 371.18 169.475 371.18 169.185C371.18 168.895 371.065 168.616 370.861 168.409C370.657 168.202 370.38 168.084 370.09 168.08V168.08Z" fill="#E6E6E6"/>
    <g id="codes">
        <path class="codes1" d="M149.16 201.253H143.914C142.324 201.253 141.034 202.543 141.034 204.133C141.034 205.724 142.324 207.013 143.914 207.013H149.16C150.751 207.013 152.04 205.724 152.04 204.133C152.04 202.543 150.751 201.253 149.16 201.253Z" fill="#E6E6E6"/>
        <path class="codes2" d="M209.16 201.253H203.914C202.324 201.253 201.034 202.543 201.034 204.133C201.034 205.724 202.324 207.013 203.914 207.013H209.16C210.751 207.013 212.04 205.724 212.04 204.133C212.04 202.543 210.751 201.253 209.16 201.253Z" fill="#E6E6E6"/>
        <path class="codes3" d="M226.16 201.253H220.914C219.324 201.253 218.034 202.543 218.034 204.133C218.034 205.724 219.324 207.013 220.914 207.013H226.16C227.751 207.013 229.04 205.724 229.04 204.133C229.04 202.543 227.751 201.253 226.16 201.253Z" fill="#E6E6E6"/>
        <path class="codes4" d="M192.84 200.773H160.234C158.644 200.773 157.354 202.063 157.354 203.653C157.354 205.244 158.644 206.533 160.234 206.533H192.84C194.431 206.533 195.72 205.244 195.72 203.653C195.72 202.063 194.431 200.773 192.84 200.773Z" fill="#E6E6E6"/>
        <path class="codes5" d="M272.84 200.773H240.234C238.644 200.773 237.354 202.063 237.354 203.653C237.354 205.244 238.644 206.533 240.234 206.533H272.84C274.431 206.533 275.72 205.244 275.72 203.653C275.72 202.063 274.431 200.773 272.84 200.773Z" fill="#E6E6E6"/>
        <path class="codes6" d="M165.16 214.253H159.914C158.324 214.253 157.034 215.543 157.034 217.133C157.034 218.724 158.324 220.013 159.914 220.013H165.16C166.751 220.013 168.04 218.724 168.04 217.133C168.04 215.543 166.751 214.253 165.16 214.253Z" fill="#E6E6E6"/>
        <path class="codes7" d="M225.16 214.253H219.914C218.324 214.253 217.034 215.543 217.034 217.133C217.034 218.724 218.324 220.013 219.914 220.013H225.16C226.751 220.013 228.04 218.724 228.04 217.133C228.04 215.543 226.751 214.253 225.16 214.253Z" fill="#E6E6E6"/>
        <path class="codes8" d="M242.16 214.253H236.914C235.324 214.253 234.034 215.543 234.034 217.133C234.034 218.724 235.324 220.013 236.914 220.013H242.16C243.751 220.013 245.04 218.724 245.04 217.133C245.04 215.543 243.751 214.253 242.16 214.253Z" fill="#E6E6E6"/>
        <path class="codes9" d="M208.84 213.773H176.234C174.644 213.773 173.354 215.063 173.354 216.653C173.354 218.244 174.644 219.533 176.234 219.533H208.84C210.431 219.533 211.72 218.244 211.72 216.653C211.72 215.063 210.431 213.773 208.84 213.773Z" fill="#E6E6E6"/>
        <path class="codes10" d="M288.84 213.773H256.234C254.644 213.773 253.354 215.063 253.354 216.653C253.354 218.244 254.644 219.533 256.234 219.533H288.84C290.431 219.533 291.72 218.244 291.72 216.653C291.72 215.063 290.431 213.773 288.84 213.773Z" fill="#E6E6E6"/>
        <path class="codes11" d="M181.16 227.253H175.914C174.324 227.253 173.034 228.543 173.034 230.133C173.034 231.724 174.324 233.013 175.914 233.013H181.16C182.751 233.013 184.04 231.724 184.04 230.133C184.04 228.543 182.751 227.253 181.16 227.253Z" fill="#E6E6E6"/>
        <path class="codes12" d="M241.16 227.253H235.914C234.324 227.253 233.034 228.543 233.034 230.133C233.034 231.724 234.324 233.013 235.914 233.013H241.16C242.751 233.013 244.04 231.724 244.04 230.133C244.04 228.543 242.751 227.253 241.16 227.253Z" fill="#E6E6E6"/>
        <path class="codes13" d="M258.16 227.253H252.914C251.324 227.253 250.034 228.543 250.034 230.133C250.034 231.724 251.324 233.013 252.914 233.013H258.16C259.751 233.013 261.04 231.724 261.04 230.133C261.04 228.543 259.751 227.253 258.16 227.253Z" fill="#E6E6E6"/>
        <path class="codes14" d="M224.84 226.773H192.234C190.644 226.773 189.354 228.063 189.354 229.653C189.354 231.244 190.644 232.533 192.234 232.533H224.84C226.431 232.533 227.72 231.244 227.72 229.653C227.72 228.063 226.431 226.773 224.84 226.773Z" fill="#E6E6E6"/>
        <path class="codes15" d="M304.84 226.773H272.234C270.644 226.773 269.354 228.063 269.354 229.653C269.354 231.244 270.644 232.533 272.234 232.533H304.84C306.431 232.533 307.72 231.244 307.72 229.653C307.72 228.063 306.431 226.773 304.84 226.773Z" fill="#E6E6E6"/>
        <path class="codes16" d="M197.16 240.253H191.914C190.324 240.253 189.034 241.543 189.034 243.133C189.034 244.724 190.324 246.013 191.914 246.013H197.16C198.751 246.013 200.04 244.724 200.04 243.133C200.04 241.543 198.751 240.253 197.16 240.253Z" fill="#E6E6E6"/>
        <path class="codes17" d="M257.16 240.253H251.914C250.324 240.253 249.034 241.543 249.034 243.133C249.034 244.724 250.324 246.013 251.914 246.013H257.16C258.751 246.013 260.04 244.724 260.04 243.133C260.04 241.543 258.751 240.253 257.16 240.253Z" fill="#E6E6E6"/>
        <path class="codes18" d="M274.16 240.253H268.914C267.324 240.253 266.034 241.543 266.034 243.133C266.034 244.724 267.324 246.013 268.914 246.013H274.16C275.751 246.013 277.04 244.724 277.04 243.133C277.04 241.543 275.751 240.253 274.16 240.253Z" fill="#E6E6E6"/>
        <path class="codes19" d="M240.84 239.773H208.234C206.644 239.773 205.354 241.063 205.354 242.653C205.354 244.244 206.644 245.533 208.234 245.533H240.84C242.431 245.533 243.72 244.244 243.72 242.653C243.72 241.063 242.431 239.773 240.84 239.773Z" fill="#E6E6E6"/>
        <path class="codes20" d="M209.16 291.947H203.914C202.324 291.947 201.034 293.236 201.034 294.827C201.034 296.417 202.324 297.707 203.914 297.707H209.16C210.751 297.707 212.04 296.417 212.04 294.827C212.04 293.236 210.751 291.947 209.16 291.947Z" fill="#E6E6E6"/>
        <path class="codes21" d="M226.16 291.947H220.914C219.324 291.947 218.034 293.236 218.034 294.827C218.034 296.417 219.324 297.707 220.914 297.707H226.16C227.751 297.707 229.04 296.417 229.04 294.827C229.04 293.236 227.751 291.947 226.16 291.947Z" fill="#E6E6E6"/>
        <path class="codes22" d="M272.84 292.427H240.234C238.644 292.427 237.354 293.716 237.354 295.307C237.354 296.898 238.644 298.187 240.234 298.187H272.84C274.431 298.187 275.72 296.898 275.72 295.307C275.72 293.716 274.431 292.427 272.84 292.427Z" fill="#E6E6E6"/>
        <path class="codes23" d="M149.16 291.947H143.914C142.324 291.947 141.034 293.236 141.034 294.827C141.034 296.417 142.324 297.707 143.914 297.707H149.16C150.751 297.707 152.04 296.417 152.04 294.827C152.04 293.236 150.751 291.947 149.16 291.947Z" fill="#E6E6E6"/>
        <path class="codes24" d="M192.84 292.427H160.234C158.644 292.427 157.354 293.716 157.354 295.307C157.354 296.898 158.644 298.187 160.234 298.187H192.84C194.431 298.187 195.72 296.898 195.72 295.307C195.72 293.716 194.431 292.427 192.84 292.427Z" fill="#E6E6E6"/>
        <path class="codes25" d="M165.16 278.947H159.914C158.324 278.947 157.034 280.236 157.034 281.827C157.034 283.417 158.324 284.707 159.914 284.707H165.16C166.751 284.707 168.04 283.417 168.04 281.827C168.04 280.236 166.751 278.947 165.16 278.947Z" fill="#E6E6E6"/>
        <path class="codes26" d="M225.16 278.947H219.914C218.324 278.947 217.034 280.236 217.034 281.827C217.034 283.417 218.324 284.707 219.914 284.707H225.16C226.751 284.707 228.04 283.417 228.04 281.827C228.04 280.236 226.751 278.947 225.16 278.947Z" fill="#E6E6E6"/>
        <path class="codes27" d="M242.16 278.947H236.914C235.324 278.947 234.034 280.236 234.034 281.827C234.034 283.417 235.324 284.707 236.914 284.707H242.16C243.751 284.707 245.04 283.417 245.04 281.827C245.04 280.236 243.751 278.947 242.16 278.947Z" fill="#E6E6E6"/>
        <path class="codes28" d="M208.84 279.427H176.234C174.644 279.427 173.354 280.716 173.354 282.307C173.354 283.898 174.644 285.187 176.234 285.187H208.84C210.431 285.187 211.72 283.898 211.72 282.307C211.72 280.716 210.431 279.427 208.84 279.427Z" fill="#E6E6E6"/>
        <path class="codes29" d="M181.16 265.947H175.914C174.324 265.947 173.034 267.236 173.034 268.827C173.034 270.417 174.324 271.707 175.914 271.707H181.16C182.751 271.707 184.04 270.417 184.04 268.827C184.04 267.236 182.751 265.947 181.16 265.947Z" fill="#E6E6E6"/>
        <path class="codes30" d="M241.16 265.947H235.914C234.324 265.947 233.034 267.236 233.034 268.827C233.034 270.417 234.324 271.707 235.914 271.707H241.16C242.751 271.707 244.04 270.417 244.04 268.827C244.04 267.236 242.751 265.947 241.16 265.947Z" fill="#E6E6E6"/>
        <path class="codes31" d="M258.16 265.947H252.914C251.324 265.947 250.034 267.236 250.034 268.827C250.034 270.417 251.324 271.707 252.914 271.707H258.16C259.751 271.707 261.04 270.417 261.04 268.827C261.04 267.236 259.751 265.947 258.16 265.947Z" fill="#E6E6E6"/>
        <path class="codes32" d="M224.84 266.427H192.234C190.644 266.427 189.354 267.716 189.354 269.307C189.354 270.898 190.644 272.187 192.234 272.187H224.84C226.431 272.187 227.72 270.898 227.72 269.307C227.72 267.716 226.431 266.427 224.84 266.427Z" fill="#E6E6E6"/>
        <path class="codes33" d="M197.16 252.947H191.914C190.324 252.947 189.034 254.236 189.034 255.827C189.034 257.417 190.324 258.707 191.914 258.707H197.16C198.751 258.707 200.04 257.417 200.04 255.827C200.04 254.236 198.751 252.947 197.16 252.947Z" fill="#E6E6E6"/>
        <path class="codes34" d="M257.16 252.947H251.914C250.324 252.947 249.034 254.236 249.034 255.827C249.034 257.417 250.324 258.707 251.914 258.707H257.16C258.751 258.707 260.04 257.417 260.04 255.827C260.04 254.236 258.751 252.947 257.16 252.947Z" fill="#E6E6E6"/>
        <path class="codes35" d="M274.16 252.947H268.914C267.324 252.947 266.034 254.236 266.034 255.827C266.034 257.417 267.324 258.707 268.914 258.707H274.16C275.751 258.707 277.04 257.417 277.04 255.827C277.04 254.236 275.751 252.947 274.16 252.947Z" fill="#E6E6E6"/>
        <path class="codes36" d="M240.84 253.427H208.234C206.644 253.427 205.354 254.716 205.354 256.307C205.354 257.898 206.644 259.187 208.234 259.187H240.84C242.431 259.187 243.72 257.898 243.72 256.307C243.72 254.716 242.431 253.427 240.84 253.427Z" fill="#E6E6E6"/>
    </g>
    <path d="M413.836 325.673C441.913 325.673 464.673 302.913 464.673 274.836C464.673 246.76 441.913 224 413.836 224C385.76 224 363 246.76 363 274.836C363 302.913 385.76 325.673 413.836 325.673Z" fill="#A0616A"/>
    <path d="M505.451 205.623C504.446 203.277 503.109 201.088 501.481 199.123C493.761 189.693 479.721 185.543 465.311 196.703C462.537 196.083 459.645 196.249 456.961 197.183C455.693 197.642 454.505 198.296 453.441 199.123C451.259 200.825 449.556 203.065 448.501 205.623C447.936 206.974 447.566 208.398 447.401 209.853C443.838 208.002 440.068 206.582 436.171 205.623C426.606 203.244 416.605 203.244 407.041 205.623C403.976 206.398 401.024 207.568 398.261 209.103C393.581 211.803 390.891 215.213 390.411 219.003C383.661 219.383 376.641 222.933 371.411 228.753C370.821 229.403 370.251 230.083 369.721 230.783C365.322 236.538 362.959 243.59 363.001 250.833V252.103H364.271C367.75 252.1 371.197 252.772 374.421 254.083C376.509 254.922 378.487 256.013 380.311 257.333C381.503 258.179 382.63 259.115 383.681 260.133C386.116 262.491 388.18 265.205 389.801 268.183C393.955 275.708 395.396 284.432 393.881 292.893C393.533 294.851 393.025 296.778 392.361 298.653C391.416 301.328 390.171 303.888 388.651 306.283C388.591 306.373 388.541 306.463 388.481 306.553C387.811 307.623 387.171 308.713 386.571 309.813C386.121 310.633 385.701 311.473 385.311 312.313C384.171 314.651 383.208 317.071 382.431 319.553C381.039 323.943 380.219 328.494 379.991 333.093C379.921 334.313 379.901 335.533 379.941 336.753C380 339.898 380.345 343.031 380.971 346.113C381.061 346.533 381.151 346.943 381.241 347.363L381.971 350.553L383.701 358.163L384.901 363.403L386.011 368.263L387.651 365.913C388.211 365.113 389.621 362.653 391.511 359.173C392.761 356.903 394.211 354.193 395.781 351.233C397.971 347.083 400.371 342.453 402.72 337.833C403.67 335.963 404.611 334.103 405.521 332.283C407.241 328.833 408.861 325.503 410.251 322.543C411.531 319.813 412.621 317.393 413.431 315.453C413.681 316.723 413.891 318.013 414.051 319.313C414.231 320.633 414.361 321.973 414.431 323.313C414.451 323.513 414.461 323.723 414.471 323.923L414.511 324.743L414.521 324.983L415.581 325.123C421.694 325.778 427.858 325.825 433.981 325.263H433.991C442.102 324.652 450.06 322.724 457.551 319.553C461.805 317.707 465.778 315.27 469.351 312.313C471.02 310.931 472.578 309.42 474.011 307.793C474.371 307.383 474.721 306.973 475.061 306.553C477.04 304.121 478.734 301.47 480.111 298.653C481.032 296.794 481.815 294.868 482.451 292.893C486.291 281.263 486.071 266.753 481.791 249.513C482.947 249.29 484.054 248.864 485.061 248.253C488.201 246.363 490.381 242.613 491.061 238.033L492.141 238.323C495.969 236.54 499.38 233.971 502.151 230.783C502.699 230.134 503.213 229.456 503.691 228.753C508.581 221.553 508.621 212.913 505.451 205.623Z" fill="#2F2E41"/>
    <path d="M167.062 391.111C166.983 390.034 167.137 388.953 167.514 387.94C167.89 386.927 168.481 386.006 169.247 385.239C170.012 384.472 170.934 383.877 171.95 383.493C172.966 383.11 174.054 382.947 175.139 383.015C175.543 383.031 175.945 383.081 176.341 383.165L223.899 393.834C224.962 394.09 225.959 394.564 226.826 395.226C227.693 395.888 228.41 396.723 228.933 397.677C229.63 397.703 230.323 397.803 230.999 397.975C232.479 398.308 233.878 398.928 235.117 399.798C236.356 400.668 237.41 401.772 238.22 403.047C239.029 404.322 239.577 405.742 239.834 407.228C240.09 408.713 240.05 410.234 239.714 411.704C239.379 413.173 238.755 414.563 237.879 415.793C237.002 417.024 235.891 418.071 234.607 418.874C232.015 420.498 228.879 421.031 225.89 420.359C224.189 419.967 222.597 419.202 221.232 418.12L205.116 463.186C204.311 464.598 203.068 465.714 201.571 466.366C200.075 467.018 198.406 467.172 196.814 466.805L165.898 459.866C164.318 459.498 162.897 458.643 161.837 457.423C160.777 456.203 160.134 454.681 160 453.076L167.062 391.111ZM226.604 417.15C228.738 417.629 230.977 417.247 232.828 416.088C234.68 414.93 235.993 413.09 236.481 410.971C236.968 408.853 236.589 406.629 235.428 404.787C234.267 402.945 232.417 401.636 230.285 401.146C230.135 401.109 229.985 401.146 229.834 401.109C229.846 402.468 229.496 403.806 228.82 404.989L222.922 415.21C223.949 416.177 225.222 416.848 226.604 417.15Z" fill="#2F2E41"/>
    <path d="M173.014 386C172.579 392.42 182.5 399.803 195.787 402.732C207.988 405.501 218.922 403.574 222 398.519C221.381 398.112 220.71 397.814 220.008 397.636L174.172 386.161C173.791 386.07 173.403 386.016 173.014 386V386Z" fill="#3F3D56"/>
    <path d="M173.959 428.308C173.912 428.259 173.875 428.195 173.851 428.118L170.812 418.64C170.775 418.525 170.766 418.386 170.786 418.235C170.806 418.084 170.855 417.926 170.927 417.774C170.999 417.623 171.093 417.483 171.2 417.368C171.307 417.252 171.424 417.165 171.54 417.114L181.521 412.679C181.613 412.637 181.702 412.619 181.784 412.626C181.866 412.632 181.939 412.663 181.998 412.717C182.057 412.77 182.102 412.845 182.13 412.937C182.157 413.029 182.167 413.137 182.159 413.254C182.151 413.371 182.124 413.494 182.081 413.618C182.038 413.741 181.98 413.862 181.909 413.974C181.838 414.085 181.756 414.185 181.668 414.267C181.579 414.349 181.487 414.412 181.395 414.452L172.48 418.413L175.181 426.84C175.233 427.003 175.228 427.215 175.167 427.437C175.105 427.659 174.99 427.878 174.844 428.054C174.697 428.23 174.528 428.352 174.366 428.399C174.204 428.445 174.06 428.413 173.959 428.308V428.308Z" fill="#6C63FF"/>
    <path d="M194.121 436.306C194.023 436.205 193.961 436.056 193.942 435.879C193.923 435.703 193.949 435.506 194.015 435.315C194.082 435.124 194.186 434.947 194.315 434.806C194.443 434.666 194.591 434.569 194.738 434.527L203.774 431.968L200.707 421.911C200.675 421.808 200.662 421.691 200.668 421.566C200.674 421.442 200.699 421.313 200.742 421.187C200.785 421.06 200.844 420.939 200.917 420.83C200.991 420.721 201.076 420.626 201.168 420.551C201.26 420.476 201.358 420.422 201.455 420.392C201.552 420.362 201.647 420.357 201.735 420.378C201.822 420.398 201.9 420.443 201.964 420.51C202.029 420.577 202.078 420.665 202.109 420.768L205.543 432.028C205.583 432.159 205.594 432.311 205.574 432.471C205.553 432.631 205.503 432.794 205.428 432.945C205.352 433.096 205.253 433.231 205.141 433.336C205.028 433.442 204.905 433.515 204.782 433.55L194.618 436.428C194.426 436.482 194.248 436.439 194.121 436.306V436.306Z" fill="#6C63FF"/>
    <path d="M173.569 436.784C173.512 436.725 173.465 436.653 173.428 436.57C173.38 436.461 173.351 436.337 173.343 436.203C173.334 436.069 173.348 435.929 173.382 435.79C173.415 435.651 173.469 435.517 173.539 435.394C173.61 435.272 173.696 435.164 173.792 435.076L196.808 414.116C197.002 413.94 197.227 413.858 197.434 413.889C197.64 413.919 197.81 414.059 197.908 414.277C198.006 414.496 198.022 414.776 197.954 415.056C197.886 415.335 197.739 415.592 197.546 415.769L174.53 436.729C174.373 436.871 174.195 436.954 174.022 436.963C173.849 436.973 173.69 436.91 173.569 436.784V436.784Z" fill="#6C63FF"/>
    <path d="M279.018 490.372L297.176 473.233L264.85 430.495L252.837 407.649C251.277 404.68 248.964 402.174 246.131 400.379C243.299 398.585 240.044 397.565 236.694 397.422C233.343 397.279 230.014 398.018 227.039 399.565C224.063 401.112 221.546 403.413 219.738 406.237V406.237C217.059 410.423 216.112 415.485 217.095 420.357C218.078 425.228 220.915 429.527 225.008 432.346L249.01 448.879L279.018 490.372Z" fill="#A0616A"/>
    <path d="M273.785 438.677L247.967 459.697L285.452 523.88C288.144 528.489 291.981 532.324 296.591 535.014C301.202 537.703 306.429 539.156 311.765 539.231V539.231C318.346 539.324 324.785 537.318 330.149 533.505C335.513 529.692 339.524 524.269 341.599 518.024L377.701 404.72C380.304 396.887 379.74 388.347 376.131 380.924C372.521 373.501 366.153 367.783 358.385 364.993V364.993C354.207 363.492 349.76 362.887 345.333 363.219C340.906 363.55 336.599 364.81 332.691 366.916C328.783 369.023 325.363 371.928 322.652 375.444C319.941 378.959 318.002 383.006 316.959 387.321L298.244 471.355L273.785 438.677Z" fill="#3F3D56"/>
    </g>
    <defs>
        <clipPath id="clip0_0_1">
        <rect width="578" height="578" fill="white"/>
        </clipPath>
    </defs>
</svg>